<svg xmlns="http://www.w3.org/2000/svg" width="25.272" height="25.272" viewBox="0 0 25.272 25.272">
  <path id="Icon_awesome-behance-square" data-name="Icon awesome-behance-square" d="M10.52,16.973c0,1.089-.79,1.433-1.76,1.433H6.216V15.422H8.811C9.86,15.427,10.52,15.862,10.52,16.973Zm-.434-4.643c0-1-.773-1.235-1.63-1.235H6.222v2.527H8.631c.852,0,1.455-.372,1.455-1.292Zm7.463,1.309a1.682,1.682,0,0,0-1.788,1.675H19.27A1.608,1.608,0,0,0,17.549,13.639Zm7.723-8.681V24.814a2.708,2.708,0,0,1-2.708,2.708H2.708A2.708,2.708,0,0,1,0,24.814V4.958A2.708,2.708,0,0,1,2.708,2.25H22.564A2.708,2.708,0,0,1,25.272,4.958Zm-9.945,5.923h4.389V9.815H15.327ZM12.9,17.1a2.8,2.8,0,0,0-1.974-2.911A2.106,2.106,0,0,0,12.4,12.1c0-2.155-1.608-2.679-3.464-2.679H3.836V20.256H9.088C11.056,20.245,12.9,19.3,12.9,17.1Zm8.535-.835c0-2.318-1.359-4.253-3.813-4.253a3.937,3.937,0,0,0-4.011,4.152,3.822,3.822,0,0,0,4.011,4.118,3.5,3.5,0,0,0,3.672-2.64h-1.9a1.784,1.784,0,0,1-1.7,1.021,1.77,1.77,0,0,1-1.924-1.991h5.652C21.424,16.544,21.436,16.4,21.436,16.268Z" transform="translate(0 -2.25)" fill="#fff"/>
</svg>
