<svg xmlns="http://www.w3.org/2000/svg" width="99.883" height="71.322" viewBox="0 0 99.883 71.322">
  <g id="Group_72" data-name="Group 72" transform="translate(-111.215 -150.394)">
    <path id="Path_15" data-name="Path 15" d="M-4853.97-8121.223c4.564-8.962,10.547-9.845,13.766-9.845s6.438-.769,9.927,3.147.446,6.889-1.045,7.646a69.45,69.45,0,0,0-11.132,6.831c-4.288,3.392-3.211,7.061-5.628,16.4s-10.363,11.334-11.183,17.262-6.526,9.234-14.395,9.66-16.806-.8-18.184-7.491-6.235-9.383-9.938-19.432-12.464-23.42-16.9-27.04-7.727-7.733-8.144-9.3-.751-7.237,8.144-6.381,16.9,11.846,16.9,11.846a9.951,9.951,0,0,1,7.751-5.464c5.6-.587,7.3,1.461,7.3,1.461s2.2-3.631,6.2-3.664a12.017,12.017,0,0,1,6.87,2.2,6.061,6.061,0,0,1,5.748-3.82c4.488-.066,8.769,4.706,10.464,7.388S-4853.97-8121.223-4853.97-8121.223Z" transform="translate(5039 8291)" fill="#fff" stroke="#000" stroke-width="1.5"/>
    <path id="Path_16" data-name="Path 16" d="M-4903.268-8129.56a41.291,41.291,0,0,1,7.313,14.692" transform="translate(5040.116 8292.124)" fill="none" stroke="#000" stroke-width="1.5"/>
    <path id="Path_17" data-name="Path 17" d="M-4895.49-8123.484s4.386,14.5,9.754,19.254,10.277-1.438,10.293-5.275.178-6.4-2.834-11.814-9.168-10.522-9.168-10.522" transform="translate(5040.018 8291.259)" fill="none" stroke="#000" stroke-width="1.5"/>
    <path id="Path_18" data-name="Path 18" d="M-4898.519-8089.9s7.116,10.85,16.273,9.451,10.949-7.615,10.949-7.615" transform="translate(5040.132 8292.663)" fill="none" stroke="#000" stroke-width="1.5"/>
    <path id="Path_19" data-name="Path 19" d="M-4859.633-8084.811a12.866,12.866,0,0,1-5.383,3.258c-3.646,1.23-4.773.781-4.773.781" transform="translate(5040.849 8292.604)" fill="none" stroke="#000" stroke-width="1.5"/>
    <path id="Path_20" data-name="Path 20" d="M-4856.265-8122.9s2.682,10.765-1.7,12.5-7.119,0-7.119,0" transform="translate(5041 8291.521)" fill="none" stroke="#000" stroke-width="1.5"/>
    <path id="Path_21" data-name="Path 21" d="M-4875.411-8133.42a45.493,45.493,0,0,1,6.438,8.573,29.244,29.244,0,0,1,3.573,10.543c.412,3.067.85,8.064-3.573,9.5a12.053,12.053,0,0,1-8.464-.657" transform="translate(5040.908 8291.209)" fill="none" stroke="#000" stroke-width="1.5"/>
  </g>
</svg>
