<svg xmlns="http://www.w3.org/2000/svg" width="25.277" height="25.272" viewBox="0 0 25.277 25.272">
  <path id="Icon_awesome-instagram" data-name="Icon awesome-instagram" d="M12.636,8.394a6.479,6.479,0,1,0,6.479,6.479A6.469,6.469,0,0,0,12.636,8.394Zm0,10.692a4.212,4.212,0,1,1,4.212-4.212A4.22,4.22,0,0,1,12.636,19.086ZM20.892,8.129a1.511,1.511,0,1,1-1.511-1.511A1.508,1.508,0,0,1,20.892,8.129Zm4.291,1.534a7.479,7.479,0,0,0-2.041-5.3,7.528,7.528,0,0,0-5.3-2.041c-2.086-.118-8.34-.118-10.427,0a7.517,7.517,0,0,0-5.3,2.036,7.5,7.5,0,0,0-2.041,5.3c-.118,2.086-.118,8.34,0,10.427a7.479,7.479,0,0,0,2.041,5.3,7.538,7.538,0,0,0,5.3,2.041c2.086.118,8.34.118,10.427,0a7.479,7.479,0,0,0,5.3-2.041,7.528,7.528,0,0,0,2.041-5.3c.118-2.086.118-8.335,0-10.421Zm-2.7,12.66a4.265,4.265,0,0,1-2.4,2.4c-1.664.66-5.611.508-7.449.508s-5.791.147-7.449-.508a4.265,4.265,0,0,1-2.4-2.4c-.66-1.664-.508-5.611-.508-7.449s-.147-5.791.508-7.449a4.265,4.265,0,0,1,2.4-2.4c1.664-.66,5.611-.508,7.449-.508s5.791-.147,7.449.508a4.265,4.265,0,0,1,2.4,2.4c.66,1.664.508,5.611.508,7.449S23.147,20.665,22.488,22.323Z" transform="translate(0.005 -2.238)" fill="#fff"/>
</svg>
