<svg xmlns="http://www.w3.org/2000/svg" width="25.272" height="25.272" viewBox="0 0 25.272 25.272">
  <path id="Icon_awesome-linkedin" data-name="Icon awesome-linkedin" d="M23.466,2.25H1.8A1.813,1.813,0,0,0,0,4.072V25.7a1.813,1.813,0,0,0,1.8,1.822H23.466A1.818,1.818,0,0,0,25.272,25.7V4.072A1.818,1.818,0,0,0,23.466,2.25ZM7.638,23.911H3.892V11.851H7.644v12.06ZM5.765,10.2A2.172,2.172,0,1,1,7.937,8.032,2.173,2.173,0,0,1,5.765,10.2ZM21.678,23.911H17.933V18.045c0-1.4-.028-3.2-1.946-3.2-1.952,0-2.251,1.523-2.251,3.1v5.968H9.99V11.851h3.593V13.5h.051a3.945,3.945,0,0,1,3.548-1.946c3.791,0,4.5,2.5,4.5,5.748Z" transform="translate(0 -2.25)" fill="#fff"/>
</svg>
